<svg width="86" height="96" viewBox="0 0 86 96" fill="none" xmlns="http://www.w3.org/2000/svg">
<path d="M85.1837 15.9249V30.5986H0V15.9249C0 13.7315 1.23488 11.8258 3.04908 10.8692C3.84565 10.4461 4.75276 10.2079 5.71703 10.2079H79.4667C81.6601 10.2079 83.5658 11.4428 84.5225 13.257C84.9455 14.0535 85.1837 14.9606 85.1837 15.9249Z" fill="#FD646F"/>
<path d="M22.8681 10.2079V20.8797C22.8681 21.9316 22.0143 22.7853 20.9624 22.7853H12.1963C11.1443 22.7853 10.2906 21.9316 10.2906 20.8797V10.2079H22.8681Z" fill="#FC4755"/>
<path d="M71.844 10.2079V20.8797C71.844 21.9316 70.9903 22.7853 69.9383 22.7853H61.1722C60.1203 22.7853 59.2665 21.9316 59.2665 20.8797V10.2079H71.844Z" fill="#FC4755"/>
<path d="M3.04908 10.8691V30.5986H0V15.9249C0 13.7315 1.23488 11.8258 3.04908 10.8691Z" fill="#FC4755"/>
<path d="M15.6268 41.9988H25.4316C25.9577 41.9988 26.3844 42.4255 26.3844 42.9516V52.7563C26.3844 53.2825 25.9577 53.7092 25.4316 53.7092H15.6268C15.1007 53.7092 14.674 53.2825 14.674 52.7563V42.9516C14.674 42.4255 15.1007 41.9988 15.6268 41.9988Z" fill="#E6E6E6"/>
<path d="M15.6265 56.5671H25.4312C25.9574 56.5671 26.3841 56.9938 26.3841 57.52V67.3266C26.3841 67.8527 25.9574 68.2794 25.4312 68.2794H15.6265C15.1004 68.2794 14.6737 67.8527 14.6737 67.3266V57.52C14.6737 56.9938 15.1004 56.5671 15.6265 56.5671Z" fill="#E6E6E6"/>
<path d="M15.6265 71.1381H25.4312C25.9574 71.1381 26.3841 71.5647 26.3841 72.0909V81.8956C26.3841 82.4218 25.9574 82.8484 25.4312 82.8484H15.6265C15.1004 82.8484 14.6737 82.4218 14.6737 81.8956V72.0909C14.6737 71.5647 15.1004 71.1381 15.6265 71.1381Z" fill="#E6E6E6"/>
<path d="M30.1954 41.9984H40.2097C40.7359 41.9984 41.1626 42.4251 41.1626 42.9513V52.756C41.1626 53.2821 40.7359 53.7088 40.2097 53.7088H30.1954C29.6692 53.7088 29.2426 53.2821 29.2426 52.756V42.9513C29.2426 42.4251 29.6692 41.9984 30.1954 41.9984Z" fill="#E6E6E6"/>
<path d="M30.1954 56.5671H40.2097C40.7359 56.5671 41.1626 56.9938 41.1626 57.52V67.3266C41.1626 67.8527 40.7359 68.2794 40.2097 68.2794H30.1954C29.6692 68.2794 29.2426 67.8527 29.2426 67.3266V57.52C29.2426 56.9938 29.6692 56.5671 30.1954 56.5671Z" fill="#E6E6E6"/>
<path d="M30.1954 71.1381H40.2097C40.7359 71.1381 41.1626 71.5647 41.1626 72.0909V81.8956C41.1626 82.4218 40.7359 82.8484 40.2097 82.8484H30.1954C29.6692 82.8484 29.2426 82.4218 29.2426 81.8956V72.0909C29.2426 71.5647 29.6692 71.1381 30.1954 71.1381Z" fill="#E6E6E6"/>
<path d="M44.9739 41.9984H54.9882C55.5144 41.9984 55.9411 42.4251 55.9411 42.9513V52.756C55.9411 53.2821 55.5144 53.7088 54.9882 53.7088H44.9739C44.4477 53.7088 44.0211 53.2821 44.0211 52.756V42.9513C44.0211 42.4251 44.4477 41.9984 44.9739 41.9984Z" fill="#E6E6E6"/>
<path d="M44.9739 56.5671H54.9882C55.5144 56.5671 55.9411 56.9938 55.9411 57.52V67.3266C55.9411 67.8527 55.5144 68.2794 54.9882 68.2794H44.9739C44.4477 68.2794 44.0211 67.8527 44.0211 67.3266V57.52C44.0211 56.9938 44.4477 56.5671 44.9739 56.5671Z" fill="#E6E6E6"/>
<path d="M44.9739 71.1381H54.9882C55.5144 71.1381 55.9411 71.5647 55.9411 72.0909V81.8956C55.9411 82.4218 55.5144 82.8484 54.9882 82.8484H44.9739C44.4477 82.8484 44.0211 82.4218 44.0211 81.8956V72.0909C44.0211 71.5647 44.4477 71.1381 44.9739 71.1381Z" fill="#E6E6E6"/>
<path d="M70.5101 42.9513V52.756C70.5101 53.2821 70.0834 53.7088 69.5572 53.7088H59.7525C59.2264 53.7088 58.7997 53.2821 58.7997 52.756V42.9513C58.7997 42.4251 59.2264 41.9984 59.7525 41.9984H69.5572C70.0834 41.9984 70.5101 42.4251 70.5101 42.9513Z" fill="#E6E6E6"/>
<path d="M59.7525 56.5671H69.5572C70.0834 56.5671 70.5101 56.9938 70.5101 57.52V67.3266C70.5101 67.8527 70.0834 68.2794 69.5572 68.2794H59.7525C59.2264 68.2794 58.7997 67.8527 58.7997 67.3266V57.52C58.7997 56.9938 59.2264 56.5671 59.7525 56.5671Z" fill="#E6E6E6"/>
<path d="M59.7525 71.1381H69.5572C70.0834 71.1381 70.5101 71.5647 70.5101 72.0909V81.8956C70.5101 82.4218 70.0834 82.8484 69.5572 82.8484H59.7525C59.2264 82.8484 58.7997 82.4218 58.7997 81.8956V72.0909C58.7997 71.5647 59.2264 71.1381 59.7525 71.1381Z" fill="#E6E6E6"/>
<path d="M0 29.2646V89.6746C0 92.8323 2.55932 95.3916 5.71703 95.3916H79.4667C82.6244 95.3916 85.1837 92.8323 85.1837 89.6746V29.2646H0Z" fill="#E3E3E3"/>
<path d="M22.868 2.58524V17.8306C22.868 18.8826 22.0143 19.7363 20.9624 19.7363H15.2453C14.1934 19.7363 13.3397 18.8826 13.3397 17.8306V2.58524C13.3397 1.53331 14.1934 0.679565 15.2453 0.679565H20.9624C22.0143 0.679565 22.868 1.53331 22.868 2.58524Z" fill="#50758D"/>
<path d="M14.6737 41.9984H26.3841V53.7088H14.6737V41.9984Z" fill="#74C7FE"/>
<path d="M58.7996 41.9984H70.51V53.7088H58.7996V41.9984Z" fill="#74C7FE"/>
<path d="M29.2426 41.9984H41.1626V53.7088H29.2426V41.9984Z" fill="#74C7FE"/>
<path d="M14.6737 56.5673H26.3841V68.2795H14.6737V56.5673Z" fill="#74C7FE"/>
<path d="M58.7996 56.5673H70.51V68.2795H58.7996V56.5673Z" fill="white"/>
<path d="M29.2426 56.5673H41.1626V68.2795H29.2426V56.5673Z" fill="#74C7FE"/>
<path d="M14.6737 71.1382H26.3841V82.8486H14.6737V71.1382Z" fill="white"/>
<path d="M58.7996 71.1382H70.51V82.8486H58.7996V71.1382Z" fill="white"/>
<path d="M29.2426 71.1382H41.1626V82.8486H29.2426V71.1382Z" fill="white"/>
<path d="M44.0211 41.9984H55.9411V53.7088H44.0211V41.9984Z" fill="#74C7FE"/>
<path d="M44.0211 56.5673H55.9411V68.2795H44.0211V56.5673Z" fill="#74C7FE"/>
<path d="M44.0211 71.1382H55.9411V82.8486H44.0211V71.1382Z" fill="white"/>
<path d="M71.8439 2.58524V17.8306C71.8439 18.8826 70.9902 19.7363 69.9383 19.7363H64.2212C63.1693 19.7363 62.3156 18.8826 62.3156 17.8306V2.58524C62.3156 1.53331 63.1693 0.679565 64.2212 0.679565H69.9383C70.9902 0.679565 71.8439 1.53331 71.8439 2.58524Z" fill="#50758D"/>
<path d="M0 29.2646V89.6746C0 92.8323 2.55932 95.3916 5.71703 95.3916H7.82852C5.16248 94.9076 3.14437 92.575 3.14437 89.7699V33.3085C3.35971 32.7273 3.91807 32.3137 4.57362 32.3137H85.1837V29.3599V29.2646H0Z" fill="#B3B3B3"/>
<path d="M18.2944 19.7363H15.2453C14.1934 19.7363 13.3397 18.8826 13.3397 17.8306V2.58524C13.3397 1.53331 14.1934 0.679565 15.2453 0.679565H16.3887V17.8306C16.3887 18.8826 17.2425 19.7363 18.2944 19.7363Z" fill="#2B597F"/>
<path d="M67.2703 19.7363H64.2212C63.1693 19.7363 62.3156 18.8826 62.3156 17.8306V2.58524C62.3156 1.53331 63.1693 0.679565 64.2212 0.679565H65.3646V17.8306C65.3646 18.8826 66.2184 19.7363 67.2703 19.7363Z" fill="#2B597F"/>
</svg>
