<svg width="95" height="95" viewBox="0 0 95 95" fill="none" xmlns="http://www.w3.org/2000/svg">
<path d="M83.2395 64.1898H58.4169C55.0913 69.4516 51.4426 74.5021 47.4918 79.3122C43.5411 74.5021 39.8924 69.4516 36.5667 64.1898H11.7441L0 94.9804H94.9836L83.2395 64.1898Z" fill="#A4E29A"/>
<path d="M47.4918 0C40.7873 0.000218305 34.3575 2.66365 29.6167 7.40442C24.876 12.1452 22.2125 18.575 22.2123 25.2795C22.0641 49.3983 47.4918 79.3122 47.4918 79.3122C47.4918 79.3122 72.9194 49.3983 72.7712 25.2795C72.771 18.575 70.1076 12.1452 65.3668 7.40442C60.626 2.66365 54.1962 0.000218305 47.4918 0ZM47.4918 36.0053C45.3704 36.0053 43.2967 35.3763 41.5328 34.1977C39.7689 33.0191 38.3942 31.344 37.5824 29.3841C36.7706 27.4242 36.5581 25.2676 36.972 23.187C37.3859 21.1063 38.4074 19.1952 39.9074 17.6951C41.4075 16.1951 43.3187 15.1736 45.3993 14.7597C47.4799 14.3458 49.6365 14.5582 51.5964 15.3701C53.5563 16.1819 55.2314 17.5566 56.41 19.3205C57.5886 21.0844 58.2176 23.1581 58.2176 25.2795C58.2182 26.6882 57.9411 28.0831 57.4023 29.3847C56.8635 30.6863 56.0734 31.8689 55.0773 32.865C54.0812 33.8611 52.8986 34.6511 51.597 35.19C50.2955 35.7288 48.9005 36.0059 47.4918 36.0053Z" fill="#FD646F"/>
<path d="M85.9666 71.3274L38.5687 88.1859L20.0968 64.1906H36.5684C39.8932 69.4522 43.5413 74.5024 47.4918 79.3121C51.4423 74.5024 55.0904 69.4522 58.4152 64.1906H83.242L85.9666 71.3274Z" fill="#F2DA30"/>
<path d="M19.4712 94.9803L66.3884 78.2914L79.2331 94.9803H19.4712Z" fill="#74C7FE"/>
</svg>
