<svg width="83" height="95" viewBox="0 0 83 95" fill="none" xmlns="http://www.w3.org/2000/svg">
<path d="M44.1702 0.143555H38.6489C38.6489 12.3454 28.766 22.4127 16.5638 22.4127V27.934C28.766 27.934 38.6489 37.8169 38.6489 50.0191H44.1702C44.1702 37.8169 54.0531 27.934 66.2553 27.934V22.4127C54.0531 22.4127 44.1702 12.3454 44.1702 0.143555Z" fill="#FFDA2D"/>
<path d="M66.2554 55.5404H60.7341C60.7341 64.6503 53.2806 72.1042 44.1703 72.1042V77.6255C53.2806 77.6255 60.7341 85.2631 60.7341 94.3734H66.2554C66.2554 85.2631 73.7089 77.6255 82.8192 77.6255V72.1042C73.7089 72.1042 66.2554 64.6503 66.2554 55.5404Z" fill="#FFDA2D"/>
<path d="M16.5638 44.4977H11.0426C11.0426 50.5709 6.07322 55.5402 0 55.5402V61.0615C6.07322 61.0615 11.0426 66.0305 11.0426 72.1041H16.5638C16.5638 66.0305 21.5332 61.0615 27.6064 61.0615V55.5402C21.5332 55.5402 16.5638 50.5709 16.5638 44.4977Z" fill="#FFDA2D"/>
<path d="M26.4629 80.3861L30.367 76.482L34.2712 80.3861L30.367 84.2902L26.4629 80.3861Z" fill="#FFDA2D"/>
</svg>
